<?xml version="1.0" encoding="utf-8"?>
<!-- Generator: Adobe Illustrator 23.0.1, SVG Export Plug-In . SVG Version: 6.00 Build 0)  -->
<svg version="1.1" id="Layer_1" xmlns="http://www.w3.org/2000/svg" xmlns:xlink="http://www.w3.org/1999/xlink" x="0px" y="0px"
	 viewBox="0 0 40 40" style="enable-background:new 0 0 40 40;" xml:space="preserve">
<style type="text/css">
	.st0{fill:none;stroke:#515C6F;stroke-width:1.3;stroke-linecap:round;}
</style>
<path id="Profile" d="M36.1,28.2c-1.8-1.4-3.7-2.7-5.7-3.5c-1.6-0.6-3.1-1.4-4.5-2.4c2.2-2.7,3.7-5.9,3.9-9.4
	c0.2-2.2-0.2-4.7-1.2-6.7s-3.3-4.5-8.4-4.5s-7.3,2.4-8.4,4.5c-0.8,2-1.2,4.5-1.2,6.7c0.2,3.5,1.6,6.7,3.9,9.4
	c-1.4,1-2.9,1.8-4.5,2.4c-2,0.8-4.1,2-5.7,3.5c-1.6,2-2.7,4.5-2.7,7.1c0,1.6,1.2,3.1,3.1,3.1l0,0h30.6c1.6,0,3.1-1.4,3.1-3.1l0,0
	C38.7,32.6,37.9,30.2,36.1,28.2z"/>
<path id="More" class="st0" d="M213-71.4L213-71.4z M213-77.4L213-77.4z M213-83.4L213-83.4z"/>
</svg>
