<?xml version="1.0" encoding="utf-8"?>
<!-- Generator: Adobe Illustrator 23.0.1, SVG Export Plug-In . SVG Version: 6.00 Build 0)  -->
<svg version="1.1" id="Layer_1" xmlns="http://www.w3.org/2000/svg" xmlns:xlink="http://www.w3.org/1999/xlink" x="0px" y="0px"
	 viewBox="0 0 40 40" style="enable-background:new 0 0 40 40;" xml:space="preserve">
<path id="close" d="M34.5,38.2L34.5,38.2L20,23.5L5.5,38.2l0,0C5,38.7,4.4,39,3.7,39C2.2,39,1,37.8,1,36.3c0,0,0,0,0,0
	c0-0.7,0.3-1.4,0.7-1.9l0,0L15.9,20L1.9,5.8C1.3,5.3,1,4.5,1,3.7C1,2.2,2.2,1,3.7,1c0,0,0,0,0,0C4.4,1,5,1.3,5.5,1.8l0,0L20,16.5
	L34.5,1.8l0,0C35,1.3,35.6,1,36.3,1C37.8,1,39,2.2,39,3.7c0,0,0,0,0,0c0,0.7-0.3,1.4-0.7,1.9l0,0L24.1,20l14,14.2
	c0.6,0.5,0.9,1.3,0.9,2.1c0,1.5-1.2,2.7-2.7,2.7c0,0,0,0,0,0C35.6,39,35,38.7,34.5,38.2z"/>
</svg>
