<?xml version="1.0" encoding="utf-8"?>
<!-- Generator: Adobe Illustrator 23.0.1, SVG Export Plug-In . SVG Version: 6.00 Build 0)  -->
<svg version="1.1" id="Layer_1" xmlns="http://www.w3.org/2000/svg" xmlns:xlink="http://www.w3.org/1999/xlink" x="0px" y="0px"
	 viewBox="0 0 40 40" style="enable-background:new 0 0 40 40;" xml:space="preserve">
<path d="M38.4,19.7l-8.1-9.1c-0.6-0.9-2.2-0.9-2.8,0c-0.9,0.6-0.9,1.9-0.3,2.8l5.3,5.9H12.8c-0.6,0-0.9,0.9-0.9,1.9
	c0,0.9,0.3,1.9,0.9,1.9h19.4l-5,5.6c-0.6,0.9-0.6,2.2,0.3,2.8s2.2,0.6,2.8,0l8.1-9.1c0.3-0.3,0.6-0.9,0.6-1.2
	C39,20.3,38.7,20,38.4,19.7z"/>
<path d="M4.7,39V20.9v-18C4.7,2.3,3.8,2,2.8,2S1,2.3,1,2.9V21v18c0,0.6,0.9,0.9,1.9,0.9S4.7,39.6,4.7,39z"/>
</svg>
