<?xml version="1.0" encoding="utf-8"?>
<!-- Generator: Adobe Illustrator 23.0.1, SVG Export Plug-In . SVG Version: 6.00 Build 0)  -->
<svg version="1.1" id="Layer_1" xmlns="http://www.w3.org/2000/svg" xmlns:xlink="http://www.w3.org/1999/xlink" x="0px" y="0px"
	 viewBox="0 0 36.5 36.5" style="enable-background:new 0 0 36.5 36.5;" xml:space="preserve">
<g id="Phone" transform="translate(-216 32)">
	<path id="ic_call_24px" d="M223.5-16.2c2.9,5.7,7.5,10.3,13.2,13.2l4.4-4.4c0.5-0.5,1.3-0.7,2-0.5c2.3,0.8,4.7,1.1,7.1,1.1
		c1.1,0,2,0.9,2,2l0,0v7c0,1.1-0.9,2-2,2c-18.8,0-34-15.2-34-34c0-1.1,0.9-2,2-2h7c1.1,0,2,0.9,2,2c0,2.4,0.4,4.8,1.1,7.1
		c0.2,0.7,0,1.5-0.5,2L223.5-16.2z"/>
</g>
</svg>
