<?xml version="1.0" encoding="utf-8"?>
<!-- Generator: Adobe Illustrator 23.0.1, SVG Export Plug-In . SVG Version: 6.00 Build 0)  -->
<svg version="1.1" id="Layer_1" xmlns="http://www.w3.org/2000/svg" xmlns:xlink="http://www.w3.org/1999/xlink" x="0px" y="0px"
	 viewBox="0 0 40 40" style="enable-background:new 0 0 40 40;" xml:space="preserve">
<style type="text/css">
	.st0{fill:none;stroke:#515C6F;stroke-width:1.3;stroke-linecap:round;}
</style>
<path id="Search" d="M37.1,34.4l-7.3-7.3c5.1-6.5,4.1-15.9-2.4-21.2c-6.6-5.1-16-4.1-21.3,2.4C1,14.9,2,24.2,8.6,29.5
	c5.5,4.3,13.3,4.3,18.8,0l7.3,7.3c0.6,0.6,1.6,0.6,2.4,0C38,36.3,37.7,35.1,37.1,34.4z M18,29.1c-6.5,0-11.6-5.3-11.6-11.6
	S11.6,5.9,18,5.9s11.6,5.3,11.6,11.6C29.6,24,24.3,29.1,18,29.1L18,29.1z"/>
<path id="More" class="st0" d="M213-71.4L213-71.4z M213-77.4L213-77.4z M213-83.4L213-83.4z"/>
</svg>
