<?xml version="1.0" encoding="utf-8"?>
<!-- Generator: Adobe Illustrator 23.0.1, SVG Export Plug-In . SVG Version: 6.00 Build 0)  -->
<svg version="1.1" id="Layer_1" xmlns="http://www.w3.org/2000/svg" xmlns:xlink="http://www.w3.org/1999/xlink" x="0px" y="0px"
	 viewBox="0 0 40 40" style="enable-background:new 0 0 40 40;" xml:space="preserve">
<style type="text/css">
	.st0{fill:none;stroke:#515C6F;stroke-width:1.3;stroke-linecap:round;}
</style>
<path id="More" class="st0" d="M213-71.4L213-71.4z M213-77.4L213-77.4z M213-83.4L213-83.4z"/>
<path d="M38.1,38.5l-7.2-2.7L25.8,34c-1.9,0.8-4.1,1.2-6.2,1.2c-4.7,0-9.2-1.8-12.5-5.1s-5.3-7.6-5.3-12.3c0-9.5,8-17.3,17.7-17.3
	c4.9,0,9.4,1.9,12.7,5.3c3.3,3.3,5.1,7.6,5.1,12.1c0,3.1-0.8,6-2.3,8.6l1.2,4.5L38.1,38.5z"/>
</svg>
