<?xml version="1.0" encoding="utf-8"?>
<!-- Generator: Adobe Illustrator 23.0.1, SVG Export Plug-In . SVG Version: 6.00 Build 0)  -->
<svg version="1.1" id="Layer_1" xmlns="http://www.w3.org/2000/svg" xmlns:xlink="http://www.w3.org/1999/xlink" x="0px" y="0px"
	 viewBox="0 0 40 40" style="enable-background:new 0 0 40 40;" xml:space="preserve">
<style type="text/css">
	.st0{fill:none;stroke:#515C6F;stroke-width:1.3;stroke-linecap:round;}
</style>
<path id="Cart" d="M37.6,7.4H10.2L8.6,3.7C8.4,3.3,8.2,3.1,7.8,2.9L2.7,1.7c-0.6-0.2-1.4,0.2-1.6,1c-0.2,0.6,0.2,1.4,1,1.4l4.5,1
	L18,31.9c-1.2,2-0.4,4.7,1.6,5.9s4.7,0.4,5.9-1.6c0.6-1.2,0.8-2.7,0.2-3.9h4.7c-1,2.2,0,4.7,2.2,5.7s4.7,0,5.7-2.2s0-4.7-2.2-5.7
	c-0.6-0.2-1-0.4-1.6-0.4H20l-1.8-4.1h19.6c0.8,0,1.2-0.6,1.2-1.2l0,0V8.8C38.8,8,38.4,7.4,37.6,7.4L37.6,7.4z"/>
<path id="More" class="st0" d="M213-71.4L213-71.4z M213-77.4L213-77.4z M213-83.4L213-83.4z"/>
</svg>
